<?xml version="1.0" standalone="no"?>
<!DOCTYPE svg PUBLIC "-//W3C//DTD SVG 20010904//EN"
 "http://www.w3.org/TR/2001/REC-SVG-20010904/DTD/svg10.dtd">
<svg version="1.0" xmlns="http://www.w3.org/2000/svg"
 width="500.000000pt" height="500.000000pt" viewBox="0 0 500.000000 500.000000"
 preserveAspectRatio="xMidYMid meet">

<g transform="translate(0.000000,500.000000) scale(0.100000,-0.100000)"
fill="#000000" stroke="none">
<path d="M255 3917 c-86 -29 -168 -100 -221 -191 -23 -40 -29 -64 -32 -133 -4
-81 -3 -87 32 -158 35 -72 80 -118 1154 -1191 1198 -1197 1154 -1157 1269
-1171 56 -6 152 11 203 37 19 10 537 520 1150 1133 818 817 1124 1129 1149
1171 29 49 35 69 39 135 7 115 -13 172 -87 252 -99 109 -216 149 -342 119
-108 -26 -25 51 -1067 -993 -883 -884 -996 -997 -1004 -997 -5 0 -445 437
-978 971 -1076 1075 -1010 1016 -1153 1025 -44 2 -87 -1 -112 -9z"/>
</g>
</svg>
